<?xml version="1.0" encoding="utf-8"?>
<!-- Generator: Adobe Illustrator 23.0.6, SVG Export Plug-In . SVG Version: 6.00 Build 0)  -->
<svg version="1.1" xmlns="http://www.w3.org/2000/svg" xmlns:xlink="http://www.w3.org/1999/xlink" x="0px" y="0px"
	 viewBox="0 0 135 135" style="enable-background:new 0 0 135 135;" xml:space="preserve">
<style type="text/css">
	.st0{fill:#0F4C81;}
	.st1{fill:#0D406E;}
	.st2{fill:#FFFFFF;}
	.st3{fill:#FFCC01;}
	.st4{fill:#FFDB53;}
	.st5{fill:#FCBD11;}
</style>
<g id="Livello_2">
</g>
<g id="Livello_3">
</g>
<g id="Livello_5">
</g>
<g id="Livello_4">
</g>
<g id="Livello_1">
</g>
<g id="Livello_6">
	<g>
		<g>
			<path class="st3" d="M61.45,50.7l3.78,7.66c0.06,0.13,0.18,0.21,0.32,0.23L74,59.82c0.35,0.05,0.49,0.48,0.24,0.73l-6.11,5.96
				c-0.1,0.1-0.15,0.24-0.12,0.38l1.44,8.42c0.06,0.35-0.31,0.61-0.62,0.45l-7.56-3.97c-0.12-0.07-0.27-0.07-0.4,0l-7.56,3.97
				c-0.31,0.16-0.68-0.1-0.62-0.45l1.44-8.42c0.02-0.14-0.02-0.28-0.12-0.38l-6.11-5.96c-0.25-0.25-0.11-0.68,0.24-0.73l8.45-1.23
				c0.14-0.02,0.26-0.11,0.32-0.23l3.78-7.66C60.84,50.38,61.3,50.38,61.45,50.7z"/>
			<g>
				<path class="st4" d="M60.88,52.24l-3.37,6.52c-0.18,0.34-0.52,0.57-0.9,0.61l-7.31,0.67l7.73,0.36
					c0.49,0.02,0.94-0.27,1.11-0.74L60.88,52.24z"/>
			</g>
			<path class="st5" d="M52.9,74.33l-0.17,0.97c-0.06,0.35,0.31,0.61,0.62,0.45l7.56-3.97c0.12-0.07,0.27-0.07,0.4,0l7.56,3.97
				c0.31,0.16,0.68-0.1,0.62-0.45l-1.44-8.42c-0.02-0.14,0.02-0.28,0.12-0.38l6.11-5.96c0.25-0.25,0.11-0.68-0.24-0.73l-2.83-0.41
				C66.63,67.62,59.62,71.95,52.9,74.33z"/>
		</g>
		<path class="st0" d="M108.25,116.44L90.64,91.9c-0.07-0.09-0.15-0.17-0.22-0.24c-1.82,1.95-3.9,3.74-6.17,5.33
			c-2.27,1.59-4.67,2.94-7.15,3.98c0.06,0.1,0.11,0.2,0.17,0.3l17.57,24.57c2.59,3.7,7.7,4.6,11.39,2.01
			C109.93,125.26,110.83,120.14,108.25,116.44z"/>
		<path class="st0" d="M86.19,38.03c-13.84-13.83-36.35-13.83-50.19,0c-13.85,13.83-13.86,36.36-0.01,50.2
			c13.85,13.83,36.36,13.83,50.2,0C100.03,74.39,100.03,51.86,86.19,38.03z M42.52,81.72c-10.25-10.25-10.24-26.93,0-37.16
			c10.25-10.24,26.92-10.24,37.16-0.01c10.24,10.24,10.24,26.9,0,37.16C69.43,91.93,52.76,91.96,42.52,81.72z"/>
		<path class="st0" d="M80.04,67.08c0.08-1.96,1.44-4.94,3.19-4.42c1.38,0.39,1.61,3.39,1.37,5.24
			c-1.07,8.4-10.33,11.98-11.52,11.18C71.89,78.29,79.71,74.85,80.04,67.08z"/>
		<path class="st1" d="M35.6,129.49h-4.15c-3.4,0-6.17-2.78-6.17-6.17V33.79c0-3.4,2.78-6.17,6.17-6.17h4.15
			c3.4,0,6.17,2.78,6.17,6.17v89.53C41.77,126.71,38.99,129.49,35.6,129.49z"/>
		<path class="st1" d="M35.6,22.01h-4.15c-3.4,0-6.17-2.78-6.17-6.17v-4.15c0-3.4,2.78-6.17,6.17-6.17h4.15
			c3.4,0,6.17,2.78,6.17,6.17v4.15C41.77,19.23,38.99,22.01,35.6,22.01z"/>
	</g>
</g>
</svg>
